<svg width="338" height="85" viewBox="0 0 338 85" fill="none" xmlns="http://www.w3.org/2000/svg"><g filter="url(#filter0_d_94_3909)"><mask id="a" fill="#fff"><path d="M9 18.77C9 13.376 13.375 9 18.77 9H319.23c5.396 0 9.771 4.375 9.771 9.77v47.46c0 5.395-4.375 9.77-9.771 9.77H18.771C13.375 76 9 71.625 9 66.23V18.77z"/></mask><path d="M9 18.77C9 13.376 13.375 9 18.77 9H319.23c5.396 0 9.771 4.375 9.771 9.77v47.46c0 5.395-4.375 9.77-9.771 9.77H18.771C13.375 76 9 71.625 9 66.23V18.77z" fill="#F17C20"/><path d="M9 9h320H9zm320 57.23c0 5.535-4.488 10.023-10.024 10.023H19.024C13.488 76.253 9 71.765 9 66.229c0 5.257 4.375 9.518 9.77 9.518H319.23c5.396 0 9.771-4.261 9.771-9.518zM9 76V9v67zM329 9v67V9z" fill="#fff" mask="url(#a)"/><path d="M53.227 52h2.512V34.803h11.586V52h2.54V32.458H53.227V52zm27.608-14.824c-4.299 0-7.565 3.239-7.565 7.566s3.266 7.565 7.565 7.565c4.327 0 7.594-3.238 7.594-7.565s-3.267-7.566-7.594-7.566zM75.7 44.742c0-2.987 2.233-5.22 5.136-5.22 2.931 0 5.165 2.233 5.165 5.22 0 2.987-2.234 5.22-5.165 5.22-2.903 0-5.136-2.233-5.136-5.22zM89.584 52h.95c2.428 0 4.27-1.843 4.27-6.393v-5.862h6.561V52h2.345V37.483h-11.25v7.677c0 3.602-.921 4.579-2.094 4.579h-.782V52zm22.296-.39l-.894 2.093c-.67 1.62-1.647 2.317-3.266 2.317h-.67v2.261h.67c2.596 0 4.215-1.144 5.304-3.796l7.147-17.002h-2.429l-4.69 11.279-4.55-11.279h-2.429l5.807 14.126zm9.944-9.548c0 2.624 2.066 4.634 5.528 4.634 1.34 0 3.126-.196 4.355-.363V52h2.345V37.483h-2.345V44.1c-1.229.14-2.959.335-4.188.335-2.233 0-3.266-1.033-3.266-2.373v-4.579h-2.429v4.579zM139.99 52l9.045-10.58V52h2.345V37.483h-1.982l-9.045 10.637V37.483h-2.345V52h1.982zm13.877-14.517v2.262h5.444V52h2.345V39.745h5.443v-2.262h-13.232zM169.551 52h7.174c2.68 0 4.69-1.982 4.69-4.634s-2.01-4.634-4.69-4.634h-4.829v-5.249h-2.345V52zm2.345-2.261v-4.746h4.829c1.285 0 2.262 1.033 2.262 2.373 0 1.34-.977 2.373-2.262 2.373h-4.829zm18.806 6.449h2.345V52h12.785v4.188h2.345v-6.45h-2.652V37.484h-11.39v7.398c0 2.652-.53 4.216-1.284 4.858h-2.149v6.449zm5.778-11.25v-5.193h6.7v9.994h-7.705c.642-1.145 1.005-2.764 1.005-4.802zm13.156-.196c0 4.327 3.322 7.565 7.733 7.565 2.875 0 5.276-1.396 6.588-3.573l-2.289-.726c-.949 1.284-2.484 2.094-4.299 2.094-2.82 0-4.969-1.927-5.304-4.55h12.479c.028-.28.055-.531.055-.81 0-4.327-3.238-7.566-7.481-7.566-4.244 0-7.482 3.239-7.482 7.566zm7.426-5.388c2.596 0 4.662 1.786 5.109 4.299h-10.078c.446-2.513 2.484-4.3 4.969-4.3zM229.937 52v-6.253h8.655V52h2.345V37.483h-2.345v6.002h-8.655v-6.002h-2.345V52h2.345zm14.967 0h7.175c2.68 0 4.69-1.982 4.69-4.634s-2.01-4.634-4.69-4.634h-4.83v-5.249h-2.345V52zm2.345-2.261v-4.746h4.83c1.284 0 2.261 1.033 2.261 2.373 0 1.34-.977 2.373-2.261 2.373h-4.83zM262.107 52V39.745h7.007v-2.262h-9.352V52h2.345zm11.442 0l9.045-10.58V52h2.345V37.483h-1.982l-9.045 10.637V37.483h-2.345V52h1.982z" fill="#fff"/></g><defs><filter id="filter0_d_94_3909" x=".151" y=".151" width="337.698" height="84.698" filterUnits="userSpaceOnUse" color-interpolation-filters="sRGB"><feFlood flood-opacity="0" result="BackgroundImageFix"/><feColorMatrix in="SourceAlpha" values="0 0 0 0 0 0 0 0 0 0 0 0 0 0 0 0 0 0 127 0" result="hardAlpha"/><feOffset/><feGaussianBlur stdDeviation="4.425"/><feComposite in2="hardAlpha" operator="out"/><feColorMatrix values="0 0 0 0 0.34902 0 0 0 0 0.909804 0 0 0 0 0.6 0 0 0 0.2 0"/><feBlend in2="BackgroundImageFix" result="effect1_dropShadow_94_3909"/><feBlend in="SourceGraphic" in2="effect1_dropShadow_94_3909" result="shape"/></filter></defs></svg>