<svg width="663" height="72" viewBox="0 0 663 72" fill="none" xmlns="http://www.w3.org/2000/svg"><path d="M2.397 7.485V29h10.82c3.718 0 6.576-2.613 6.576-6.024 0-2.397-1.383-4.364-3.473-5.348 1.506-1.014 2.428-2.613 2.428-4.518 0-3.196-2.643-5.625-6.147-5.625H2.397zm10.82 11.618c2.09 0 3.687 1.598 3.687 3.658 0 2.09-1.598 3.657-3.688 3.657H5.163v-7.315h8.053zm-.616-9.036c1.875 0 3.289 1.383 3.289 3.227 0 1.845-1.414 3.227-3.289 3.227H5.163v-6.454h7.438zm10.832 2.95V29h7.899c2.95 0 5.163-2.182 5.163-5.102 0-2.92-2.213-5.102-5.163-5.102h-5.318v-5.778h-2.581zM39.077 29h2.582V13.018h-2.582V29zm-13.063-2.49v-5.225h5.318c1.413 0 2.49 1.138 2.49 2.613s-1.077 2.613-2.49 2.613h-5.318zm19.282-9.128c0 8.39 4.242 11.956 8.913 11.956 4.703 0 8.237-3.565 8.237-8.298 0-4.764-3.565-8.36-8.083-8.36-3.197 0-5.563 1.875-6.424 4.395-.123-4.887 1.783-7.776 7.008-8.299 1.322-.123 4.702-.491 5.655-.584V5.611c-1.075.092-4.395.43-5.84.584-6.392.614-9.466 4.026-9.466 11.187zm8.975-2.12c3.104 0 5.47 2.458 5.47 5.747 0 3.288-2.366 5.747-5.47 5.747-3.135 0-5.533-2.459-5.533-5.747 0-3.289 2.398-5.748 5.533-5.748zM68.176 29l9.958-11.649V29h2.582V13.018h-2.182l-9.959 11.71v-11.71h-2.582V29h2.183zm16.937 6.915h2.582v-9.159c1.414 1.599 3.473 2.582 5.809 2.582 4.487 0 7.899-3.565 7.899-8.33 0-4.763-3.412-8.328-7.9-8.328-2.335 0-4.394.983-5.808 2.581v-2.243h-2.582v22.897zm8.114-20.654c3.104 0 5.502 2.46 5.502 5.748 0 3.288-2.398 5.747-5.502 5.747-3.074 0-5.47-2.459-5.47-5.747 0-3.289 2.396-5.748 5.47-5.748zm10.866 5.748c0 4.764 3.411 8.33 7.868 8.33 2.367 0 4.395-.984 5.84-2.583V29h2.581V13.018h-2.581v2.243c-1.445-1.598-3.473-2.581-5.84-2.581-4.457 0-7.868 3.565-7.868 8.329zm8.145-5.748c3.104 0 5.501 2.46 5.501 5.748 0 3.288-2.397 5.747-5.501 5.747-3.074 0-5.471-2.459-5.471-5.747 0-3.289 2.397-5.748 5.471-5.748zM124.732 29h2.183l9.958-11.649V29h2.582V13.018h-2.183l-9.958 11.71v-11.71h-2.582V29zm2.275-22.683c0 2.705 2.213 4.703 5.102 4.703 2.889 0 5.071-1.998 5.071-4.703h-2.182c0 1.507-1.229 2.613-2.889 2.613-1.66 0-2.889-1.106-2.889-2.613h-2.213zm15.185 6.7v2.49h5.993V29h2.582V15.507h5.994v-2.49h-14.569zm15.687 7.992c0 4.764 3.658 8.33 8.514 8.33 3.166 0 5.809-1.538 7.253-3.935l-2.52-.8c-1.045 1.415-2.735 2.306-4.733 2.306-3.104 0-5.471-2.12-5.84-5.01h13.739c.031-.307.061-.584.061-.891 0-4.764-3.565-8.33-8.237-8.33-4.671 0-8.237 3.566-8.237 8.33zm8.176-5.932c2.858 0 5.133 1.967 5.624 4.733h-11.095c.492-2.766 2.735-4.733 5.471-4.733zm27.189-2.459c-4.887 0-8.545 3.627-8.545 8.39 0 4.765 3.658 8.392 8.545 8.392 4.887 0 8.544-3.627 8.544-8.391s-3.657-8.39-8.544-8.39zm-3.75 8.39c0-2.15 1.629-3.841 3.75-3.841 2.09 0 3.75 1.69 3.75 3.842 0 2.151-1.66 3.842-3.75 3.842-2.121 0-3.75-1.69-3.75-3.842zM203.922 29h4.487v-5.963h6.362V29h4.488V13.018h-4.488v5.716h-6.362v-5.716h-4.487V29zm16.963-4.303V29h1.383c3.381 0 5.932-2.244 5.932-8.36v-3.35h4.672V29h4.487V13.018h-13.646v6.608c0 4.395-.769 5.071-1.783 5.071h-1.045zm18.621-3.688c0 4.764 3.258 8.39 7.561 8.39 1.66 0 3.197-.553 4.426-1.475V29h4.58V13.018h-4.58v1.075a7.363 7.363 0 00-4.426-1.475c-4.303 0-7.561 3.596-7.561 8.39zm8.36-3.842c1.967 0 3.566 1.66 3.566 3.811 0 2.213-1.599 3.873-3.566 3.873-1.997 0-3.565-1.66-3.565-3.873 0-2.151 1.568-3.811 3.565-3.811zM262.448 29l7.1-8.36V29h4.487V13.018h-3.719l-7.1 8.483v-8.483h-4.487V29h3.719zM260.88 6.317c0 3.105 2.367 5.44 5.502 5.44s5.471-2.335 5.471-5.44h-3.412c0 1.23-.891 2.183-2.059 2.183-1.168 0-2.09-.953-2.09-2.183h-3.412zM276.738 29h4.487v-5.963h6.362V29h4.487V13.018h-4.487v5.716h-6.362v-5.716h-4.487V29zm26.38-4.057c.984 2.766 3.566 4.395 7.008 4.395 4.026 0 6.946-2.12 6.946-4.948 0-1.568-.891-2.92-2.305-3.689 1.229-.737 1.998-1.966 1.998-3.35 0-2.674-2.797-4.671-6.516-4.671-3.412 0-6.055 1.629-7.038 4.395l2.612.707c.676-1.721 2.213-2.643 4.303-2.643 2.244 0 3.965 1.106 3.965 2.55 0 1.107-1.014 1.968-2.397 1.968h-3.75v2.182h3.934c1.445 0 2.52.953 2.52 2.213 0 1.598-1.813 2.827-4.333 2.827-2.121 0-3.658-.922-4.334-2.643l-2.613.707zm16.691-3.934c0 4.764 3.411 8.33 7.868 8.33 2.367 0 4.395-.984 5.84-2.583V29h2.581V13.018h-2.581v2.243c-1.445-1.598-3.473-2.581-5.84-2.581-4.457 0-7.868 3.565-7.868 8.329zm8.145-5.748c3.104 0 5.501 2.46 5.501 5.748 0 3.288-2.397 5.747-5.501 5.747-3.074 0-5.471-2.459-5.471-5.747 0-3.289 2.397-5.748 5.471-5.748zM340.448 29h2.183l9.958-11.649V29h2.582V13.018h-2.183l-9.958 11.71v-11.71h-2.582V29zm2.275-22.683c0 2.705 2.213 4.703 5.102 4.703 2.889 0 5.071-1.998 5.071-4.703h-2.182c0 1.507-1.229 2.613-2.889 2.613-1.66 0-2.889-1.106-2.889-2.613h-2.213zM362.15 29V17.905l5.317 9.25h1.598l5.286-9.22V29h2.582V13.018h-2.582l-6.085 10.634-6.116-10.634h-2.582V29h2.582zm19.178-15.982V29h7.899c2.951 0 5.164-2.182 5.164-5.102 0-2.92-2.213-5.102-5.164-5.102h-5.317v-5.778h-2.582zM396.973 29h2.581V13.018h-2.581V29zm-13.063-2.49v-5.225h5.317c1.414 0 2.49 1.138 2.49 2.613s-1.076 2.613-2.49 2.613h-5.317zM414.045 29v-6.885h9.528V29h2.582V13.018h-2.582v6.608h-9.528v-6.608h-2.582V29h2.582zm15.648-7.991c0 4.764 3.411 8.33 7.868 8.33 2.367 0 4.395-.984 5.84-2.583V29h2.581V13.018h-2.581v2.243c-1.445-1.598-3.473-2.581-5.84-2.581-4.457 0-7.868 3.565-7.868 8.329zm8.145-5.748c3.104 0 5.501 2.46 5.501 5.748 0 3.288-2.397 5.747-5.501 5.747-3.074 0-5.471-2.459-5.471-5.747 0-3.289 2.397-5.748 5.471-5.748zm28.428-2.581c-4.733 0-8.329 3.565-8.329 8.329 0 4.764 3.596 8.33 8.329 8.33 4.764 0 8.36-3.566 8.36-8.33s-3.596-8.33-8.36-8.33zm-5.655 8.329c0-3.289 2.458-5.748 5.655-5.748 3.227 0 5.686 2.46 5.686 5.748 0 3.288-2.459 5.747-5.686 5.747-3.197 0-5.655-2.459-5.655-5.747zm25.044 8.33c3.504 0 6.332-1.906 7.623-4.826l-2.582-.769c-.922 1.844-2.797 3.012-5.041 3.012-3.196 0-5.655-2.459-5.655-5.747 0-3.289 2.459-5.748 5.655-5.748 2.244 0 4.119 1.168 5.041 3.012l2.582-.768c-1.291-2.92-4.119-4.825-7.623-4.825-4.733 0-8.329 3.565-8.329 8.329 0 4.764 3.596 8.33 8.329 8.33zM499.137 29v-6.885h9.528V29h2.582V13.018h-2.582v6.608h-9.528v-6.608h-2.582V29h2.582zm23.977-16.32c-4.733 0-8.329 3.565-8.329 8.329 0 4.764 3.596 8.33 8.329 8.33 4.764 0 8.36-3.566 8.36-8.33s-3.596-8.33-8.36-8.33zm-5.655 8.329c0-3.289 2.458-5.748 5.655-5.748 3.227 0 5.686 2.46 5.686 5.748 0 3.288-2.459 5.747-5.686 5.747-3.197 0-5.655-2.459-5.655-5.747zm17.545-7.991V29h8.882c2.828 0 4.949-1.967 4.949-4.672 0-1.66-.953-3.073-2.428-3.81 1.014-.77 1.659-1.937 1.659-3.29 0-2.366-2.059-4.21-4.825-4.21h-8.237zm8.882 8.79c1.291 0 2.244 1.014 2.244 2.367 0 1.321-.953 2.335-2.244 2.335h-6.3v-4.702h6.3zm-6.3-2.182v-4.119h5.655c1.26 0 2.151.892 2.151 2.06 0 1.168-.891 2.059-2.151 2.059h-5.655zm13.727 1.383c0 4.764 3.657 8.33 8.513 8.33 3.166 0 5.809-1.538 7.254-3.935l-2.521-.8c-1.045 1.415-2.735 2.306-4.733 2.306-3.104 0-5.471-2.12-5.839-5.01h13.738c.031-.307.062-.584.062-.891 0-4.764-3.566-8.33-8.237-8.33-4.672 0-8.237 3.566-8.237 8.33zm8.175-5.932c2.859 0 5.133 1.967 5.625 4.733h-11.096c.492-2.766 2.736-4.733 5.471-4.733zM1.291 71.915H5.9v-7.99a7.274 7.274 0 004.395 1.475c4.303 0 7.592-3.627 7.592-8.391 0-4.795-3.289-8.39-7.592-8.39-1.66 0-3.165.552-4.395 1.474v-1.075h-4.61v22.897zm8.237-18.748c1.967 0 3.534 1.66 3.534 3.873 0 2.151-1.567 3.81-3.534 3.81-1.998 0-3.565-1.659-3.565-3.81 0-2.213 1.567-3.873 3.565-3.873zm9.94 3.842c0 4.764 3.72 8.39 8.73 8.39 3.441 0 6.238-1.72 7.652-4.333l-4.457-1.014c-.737.86-1.844 1.413-3.165 1.413-1.906 0-3.381-1.137-3.904-2.796H36.22a7.422 7.422 0 00.184-1.66c0-4.764-3.657-8.39-8.452-8.39-4.825 0-8.483 3.626-8.483 8.39zm8.483-4.457c1.752 0 3.197 1.076 3.75 2.705h-7.346c.523-1.629 1.967-2.705 3.596-2.705zm9.826 4.457c0 4.764 3.258 8.39 7.561 8.39 1.66 0 3.197-.553 4.426-1.475V65h4.58V49.018h-4.58v1.075a7.364 7.364 0 00-4.426-1.475c-4.303 0-7.56 3.596-7.56 8.39zm8.36-3.842c1.967 0 3.566 1.66 3.566 3.811 0 2.213-1.599 3.873-3.566 3.873-1.998 0-3.565-1.66-3.565-3.873 0-2.151 1.567-3.811 3.565-3.811zm9.787 7.53V65h1.383c3.38 0 5.932-2.244 5.932-8.36v-3.35h4.672V65h4.487V49.018H58.752v6.608c0 4.395-.769 5.071-1.783 5.071h-1.045zM75.099 65h8.513c3.35 0 5.81-2.397 5.81-5.655 0-3.197-2.46-5.625-5.81-5.625h-4.026v-4.702h-4.487V65zm4.487-4.303v-2.674h3.996c.645 0 1.167.584 1.167 1.322 0 .768-.522 1.352-1.167 1.352h-3.996zM91.336 65h4.488v-5.963h6.362V65h4.487V49.018h-4.487v5.716h-6.362v-5.716h-4.487V65zm18.039 0h8.514c3.35 0 5.809-2.397 5.809-5.655 0-3.197-2.459-5.625-5.809-5.625h-4.026v-4.702h-4.488V65zm15.583 0h4.487V49.018h-4.487V65zm-7.1-6.977c.646 0 1.168.584 1.168 1.322 0 .768-.522 1.352-1.168 1.352h-3.995v-2.674h3.995zM130.989 65h5.409l3.166-4.641L142.76 65h5.379l-5.809-8.237 5.471-7.745h-5.379l-2.858 4.149-2.859-4.15h-5.378l5.501 7.746L130.989 65zm34.251-16.382c-4.887 0-8.544 3.627-8.544 8.39 0 4.765 3.657 8.392 8.544 8.392 4.887 0 8.544-3.627 8.544-8.391s-3.657-8.39-8.544-8.39zm-3.75 8.39c0-2.15 1.629-3.841 3.75-3.841 2.09 0 3.75 1.69 3.75 3.842 0 2.151-1.66 3.842-3.75 3.842-2.121 0-3.75-1.69-3.75-3.842zm12.931-3.718h4.949V65h4.487V53.29h4.949v-4.272h-14.385v4.272zm15.195 7.223c.769 2.981 3.781 4.887 7.684 4.887 4.303 0 7.469-2.213 7.469-5.133 0-1.445-.769-2.674-2.029-3.473 1.076-.8 1.752-1.937 1.752-3.258 0-2.797-3.012-4.918-7.038-4.918-3.842 0-6.947 1.936-7.746 4.887l4.518 1.106c.369-1.106 1.476-1.72 3.012-1.72 1.445 0 2.582.614 2.582 1.413 0 .523-.492.922-1.137.922h-3.289v3.258h3.473c.707 0 1.23.461 1.23 1.045 0 .891-1.23 1.568-2.92 1.568-1.568 0-2.674-.615-3.043-1.721l-4.518 1.137zM206.773 65h8.514c3.35 0 5.809-2.397 5.809-5.655 0-3.197-2.459-5.625-5.809-5.625h-4.026v-4.702h-4.488V65zm15.583 0h4.487V49.018h-4.487V65zm-7.1-6.977c.646 0 1.168.584 1.168 1.322 0 .768-.522 1.352-1.168 1.352h-3.995v-2.674h3.995zM229.554 65h9.405c3.166 0 5.533-2.06 5.533-4.918 0-1.444-.83-2.735-2.121-3.534.861-.8 1.383-1.875 1.383-3.104 0-2.49-2.336-4.426-5.409-4.426h-8.791V65zm4.488-4.088v-2.459h4.672c.676 0 1.167.523 1.167 1.23s-.491 1.23-1.167 1.23h-4.672zm0-5.716v-2.09h4.18c.614 0 1.045.43 1.045 1.044 0 .615-.431 1.046-1.045 1.046h-4.18zm20.402-6.578c-4.887 0-8.544 3.627-8.544 8.39 0 4.765 3.657 8.392 8.544 8.392 4.887 0 8.544-3.627 8.544-8.391s-3.657-8.39-8.544-8.39zm-3.75 8.39c0-2.15 1.629-3.841 3.75-3.841 2.09 0 3.75 1.69 3.75 3.842 0 2.151-1.66 3.842-3.75 3.842-2.121 0-3.75-1.69-3.75-3.842zM265.122 65h9.405c3.166 0 5.532-2.06 5.532-4.918 0-1.444-.83-2.735-2.12-3.534.86-.8 1.383-1.875 1.383-3.104 0-2.49-2.336-4.426-5.41-4.426h-8.79V65zm4.487-4.088v-2.459h4.672c.676 0 1.168.523 1.168 1.23s-.492 1.23-1.168 1.23h-4.672zm0-5.716v-2.09h4.18c.615 0 1.045.43 1.045 1.044 0 .615-.43 1.046-1.045 1.046h-4.18zM293.866 65v-6.885h9.528V65h2.582V49.018h-2.582v6.608h-9.528v-6.608h-2.582V65h2.582zm15.648-7.991c0 4.764 3.411 8.33 7.868 8.33 2.367 0 4.395-.984 5.84-2.583V65h2.581V49.018h-2.581v2.243c-1.445-1.598-3.473-2.581-5.84-2.581-4.457 0-7.868 3.565-7.868 8.329zm8.145-5.748c3.104 0 5.501 2.46 5.501 5.748 0 3.288-2.397 5.747-5.501 5.747-3.074 0-5.471-2.459-5.471-5.747 0-3.289 2.397-5.748 5.471-5.748z" fill="#233146"/><g clip-path="url(#clip0_94_3891)"><path d="M422.447 53.277c0-1.292-.395-2.477-1.185-3.554-.682-.934-1.58-1.544-2.693-1.795-.718-.18-1.795-.252-3.375-.252h-9.262v17.52h5.026V51.59h4.129c.574 0 1.113.18 1.544.574.251.216.466.467.574.682.144.252.18.503.18.79v11.525h5.026V53.277h.036zM459.856 49.759c-.754 1.077-1.149 2.262-1.149 3.554V65.27h4.667V53.708c0-.287.072-.574.18-.79.143-.215.323-.467.574-.682.431-.395.97-.574 1.544-.574h4.165v-3.986h-3.878c-1.579 0-2.728.072-3.446.252-1.113.287-2.011.897-2.657 1.83zM449.732 47.676h-4.668V65.27h4.668V47.676z" fill="#233146"/><path d="M445.064 41.932v4.308h4.668v-4.308h-4.668z" fill="#3098D4"/><path d="M443.77 47.676h-6.642l-7.288 9.084 7.252 8.509h6.678l-7.934-8.689 7.934-8.904z" fill="#233146"/><path d="M456.193 65.268V60.96h-4.308v4.308h4.308z" fill="#F47C20"/><path d="M488.505 47.676h-4.667V61.32h-4.667c-.575 0-1.185-.18-1.688-.61-.502-.395-.825-.898-.825-1.472v-11.56h-4.668v11.955c0 1.328.431 2.513 1.221 3.554a4.56 4.56 0 002.729 1.795c.682.144 1.866.252 3.518.252h9.047V47.676zM397.134 51.77c.323.107.682.322.969.717.251.288.395.539.503.79.108.216.143.503.143.79v.79h-8.221c-1.4 0-2.513.502-3.447 1.508-.933 1.005-1.364 2.262-1.364 3.805 0 1.472.502 2.693 1.508 3.627 1.005.969 2.226 1.436 3.662 1.436h12.889V55.18c0-1.4-.144-2.513-.395-3.375-.251-.861-.718-1.687-1.508-2.441-.575-.575-1.293-.97-2.118-1.257-.79-.287-2.047-.43-3.734-.43h-9.119v3.949h8.796c.61 0 1.077.036 1.436.143zm-4.632 6.318h6.247v3.59h-6.39a2.1 2.1 0 01-1.4-.502c-.395-.323-.611-.718-.611-1.221 0-.574.216-1.005.611-1.364.466-.36.933-.503 1.543-.503zM382.557 50.369c-1.4-1.795-3.159-2.693-5.277-2.693h-6.535v-5.744l-4.667.072v23.264h11.13c2.19 0 3.949-.933 5.349-2.8 1.293-1.723 1.939-3.806 1.939-6.175 0-2.298-.646-4.273-1.939-5.924zm-7.431.897c1.22 0 2.226.503 3.051 1.544.79 1.041 1.185 2.226 1.185 3.555 0 1.292-.359 2.477-1.113 3.446-.718 1.005-1.687 1.508-2.872 1.508h-4.632V51.266h4.381zM429.267 41.932H424.6v23.336h4.667V41.932z" fill="#233146"/><path d="M361.41 46.6v-4.668h-9.693v4.667h9.693z" fill="#3098D4"/><path d="M361.411 55.934v-4.667h-15.438v4.667h15.438z" fill="#19AF5D"/><path d="M340.229 60.601v4.668h21.182V60.6h-21.182z" fill="#F47C20"/></g><defs><clipPath id="clip0_94_3891"><path fill="#fff" transform="translate(340.23 41.932)" d="M0 0h148.277v23.337H0z"/></clipPath></defs></svg>